<svg width="78" height="40" viewBox="0 0 78 40" fill="none" xmlns="http://www.w3.org/2000/svg">
<path d="M63.96 34.1112C63.8953 33.9489 63.8211 34.6703 63.8211 34.4431C63.8211 34.4431 63.8692 34.8928 63.9598 34.7196C64.1927 34.2977 64.8926 34.4431 65.4231 34.4431C65.9147 34.4539 66.1318 33.9778 66.5846 34.4431C66.3647 34.2771 69.5326 35.6781 67.8569 33.1155C69.6681 34.9765 66.8667 32.5624 68.5228 32.5624C70.1529 32.5624 70.8356 30.4846 72 29.5C73.1385 28.5262 73.9259 25.9185 73.9259 24.5768C73.913 23.4191 73.5507 22.4345 72.8391 21.623C72.2699 20.963 71.2607 20.2814 69.8117 19.5781C68.285 18.8315 67.3729 18.3717 67.0754 18.1986C66.4026 17.8091 65.8333 17.4087 65.3676 16.9976C64.1902 15.9589 63.6016 14.6767 63.6016 13.1512C63.6016 12.9564 63.6145 12.7508 63.6404 12.5344C63.8215 10.8898 64.6301 9.5049 66.0662 8.37965C67.5411 7.24357 69.2748 6.67554 71.2672 6.67554C72.1211 6.67554 72.9556 6.78914 73.7706 7.01636C75.4655 7.50325 76.7722 8.34719 77.6908 9.54818C77.846 9.87277 77.9237 10.1108 77.9237 10.2623C77.9237 10.457 77.859 10.6518 77.7296 10.8466C77.445 11.2469 77.0374 11.447 76.507 11.447C76.0412 11.447 75.7113 11.3443 75.5172 11.1387C74.1976 9.80785 72.7809 9.13703 71.2672 9.12621C70.0769 9.12621 69.0225 9.48867 68.1039 10.2136C67.0818 11.0251 66.5708 12.0151 66.5708 13.1836C66.5708 13.9085 66.836 14.5577 67.3665 15.1312C67.8451 15.6505 68.7831 16.2618 70.1804 16.9651C71.7071 17.7225 72.8456 18.3555 73.596 18.864C76.0024 20.4869 77.2056 22.3912 77.2056 24.5768C77.2056 25.0637 77.1474 25.5506 77.031 26.0375C76.604 27.7578 75.6337 29.7561 73.9259 30.903C72.1922 32.0715 71.3766 33.724 69.2418 33.724C67.8575 33.724 65.6984 35.049 64.4047 34.4431C62.6192 33.5883 65.9483 34.1112 63.96 34.1112Z" fill="white"/>
<path d="M0.396484 28.168C-4.29623 10.0925 33.7481 -0.626728 59.0322 4.98438C59.8039 5.17873 60.3249 5.9307 59.6055 6.05859C36.0279 0.807159 2.48324 11.6139 1.97656 24.9375C1.30397 42.659 57.974 39.7719 75.5996 29.0762L75.2266 29.5205L71.7471 33.8223C50.2318 42.724 5.43651 42.9672 0.396484 28.168ZM14.1084 4.6875C21.3064 -1.5243 58.6845 -2.63619 75.3721 8.01172L74.123 10.4014C61.214 1.13194 32.5706 -1.78526 14.0654 5.49707C13.7709 5.61246 13.7468 4.99963 14.1084 4.6875Z" fill="white"/>
<path d="M54.8021 31.3922C54.8021 31.4022 54.7971 31.4221 54.7872 31.452C54.6782 32.2292 54.2816 32.6178 53.5974 32.6178C53.3595 32.6178 53.1513 32.558 52.9728 32.4384C52.5762 32.1793 52.3779 31.7559 52.3779 31.168C52.3779 30.9986 52.8439 26.9085 53.7759 18.8975C51.4162 23.8894 49.5622 27.8301 48.2137 30.7196C47.9262 31.3374 47.7626 31.6811 47.723 31.7509C47.4255 32.3188 47.0289 32.6078 46.5332 32.6178C46.434 32.6178 46.3399 32.6078 46.2506 32.5879C45.8342 32.5081 45.5169 32.1644 45.2988 31.5566L42.7259 18.8676C42.1509 23.4311 41.5659 27.6059 40.971 31.3922C40.971 31.4022 40.9661 31.4221 40.9562 31.452C40.8471 32.2292 40.4505 32.6178 39.7664 32.6178C39.5284 32.6178 39.3202 32.558 39.1418 32.4384C38.7452 32.1793 38.5469 31.7559 38.5469 31.168C38.5469 31.0684 39.2508 25.6929 40.6587 15.0415C41.0256 12.2914 41.2239 10.8068 41.2536 10.5876C41.2833 10.4083 41.3428 10.2439 41.4321 10.0944C41.6799 9.69586 42.0418 9.49658 42.5177 9.49658C42.6268 9.49658 42.7408 9.51153 42.8598 9.54142C43.2861 9.66099 43.529 9.88517 43.5885 10.214C43.7868 11.3299 44.4263 14.5782 45.507 19.9586C46.2804 23.8545 46.7761 26.3704 46.9942 27.5063L55.04 10.3634C55.0797 10.2638 55.1342 10.1592 55.2036 10.0496C55.4912 9.68091 55.8481 9.49658 56.2744 9.49658C56.4628 9.49658 56.6413 9.5464 56.8098 9.64604C57.2064 9.86525 57.4245 10.204 57.4642 10.6624C57.4245 10.9513 57.3849 11.2851 57.3452 11.6637C55.8878 23.3513 55.04 29.9275 54.8021 31.3922Z" fill="white"/>
<path d="M25.7507 9.46059C26.1186 9.41085 26.6306 9.38599 27.2867 9.38599C28.9966 9.38599 30.4978 9.66948 31.7902 10.2365C34.6732 11.4898 36.1147 13.9965 36.1147 17.7566C36.1147 18.5524 36.0799 19.3283 36.0103 20.0843C35.563 24.8987 33.7387 28.3703 30.5376 30.499C28.4101 31.9115 25.9148 32.6178 23.0516 32.6178C22.823 32.6178 22.6192 32.5581 22.4402 32.4387C22.0426 32.1801 21.8438 31.7573 21.8438 31.1705C21.8438 30.9715 22.7484 24.1228 24.5578 10.6244C24.5677 10.4653 24.6025 10.3161 24.6622 10.1768C24.8709 9.71922 25.2338 9.48049 25.7507 9.46059ZM33.7735 17.861C33.7735 16.3391 33.4653 15.0758 32.8489 14.0711C31.8846 12.4995 30.294 11.7136 28.077 11.7136C27.6794 11.7136 27.242 11.7485 26.7648 11.8181L24.4534 30.0514C24.6025 30.0414 24.7616 30.0315 24.9306 30.0216C26.7697 29.8425 28.4001 29.181 29.8218 28.0371C32.4563 25.9183 33.7735 22.5263 33.7735 17.861Z" fill="white"/>
</svg>
