<svg width="180" height="180" viewBox="0 0 180 180" fill="none" xmlns="http://www.w3.org/2000/svg">
<g clip-path="url(#clip0_37_9964)">
<rect width="180" height="180" rx="24" fill="#2563EB"/>
<path d="M153.232 157.411C165.873 160.324 149.133 160.152 144.297 156.214C144.297 156.214 146.352 155.731 146.725 155.017C147.686 153.277 146.931 155.264 149.119 155.264C151.147 155.309 151.422 149.16 153.289 151.079C152.382 150.395 168.197 159.484 161.284 148.914C168.756 156.59 165.452 151.387 165.452 148.069C172.176 148.069 174.253 144.246 176.647 138.261C182.211 134.671 183.572 115.915 183.572 110.381C183.519 105.606 182.024 101.544 179.089 98.1968C176.741 95.4743 172.578 92.6625 166.601 89.7615C160.304 86.6819 156.541 84.7851 155.314 84.071C152.539 82.4643 150.19 80.8129 148.269 79.1169C143.413 74.8324 140.984 69.5436 140.984 63.2506C140.984 62.4472 141.038 61.5992 141.144 60.7066C141.892 53.9227 145.227 48.2099 151.151 43.5683C157.235 38.882 164.386 36.5388 172.605 36.5388C176.127 36.5388 179.569 37.0075 182.932 37.9447C189.923 39.9531 195.313 43.4344 199.102 48.3884C199.742 49.7273 200.063 50.7092 200.063 51.3341C200.063 52.1374 199.796 52.9408 199.262 53.7441C198.088 55.3955 196.407 56.2212 194.219 56.2212C192.298 56.2212 190.937 55.7972 190.136 54.9492C184.693 49.4596 178.849 46.6924 172.605 46.6478C167.695 46.6478 163.346 48.1429 159.556 51.1332C155.34 54.4806 153.232 58.5643 153.232 63.3845C153.232 66.3748 154.326 69.0526 156.514 71.4181C158.489 73.5604 162.358 76.082 168.122 78.9831C174.419 82.1072 179.116 84.7181 182.211 86.8158C192.137 93.5105 197.101 101.366 197.101 110.381C197.101 112.389 197.581 117.104 197.101 119.112C193.38 134.671 194.219 142.624 182.211 148.069C164.25 156.214 173.056 148.113 164.25 148.113C158.54 148.113 152.062 158.713 146.725 156.214C139.361 152.688 161.434 157.411 153.232 157.411Z" fill="white"/>
<path d="M-26.8418 125.193C-40.5536 50.632 70.6026 6.41969 144.476 29.5654C146.731 30.367 148.255 33.4682 146.151 33.9951C77.2638 12.3323 -20.7463 56.9095 -22.2246 111.87C-24.1894 184.958 141.329 173.068 192.856 128.968L191.78 130.772L181.607 148.536C118.738 185.244 -12.1206 186.236 -26.8418 125.193ZM13.2217 28.3398C34.2483 2.71672 143.448 -1.87555 192.209 42.039L188.561 51.8974C150.84 13.6677 67.1605 1.64092 13.0977 31.6787C12.2361 32.1574 12.1649 29.6279 13.2217 28.3398Z" fill="white"/>
<path d="M104.669 138.494C104.669 138.535 104.649 138.618 104.608 138.741C104.158 141.947 102.522 143.55 99.7003 143.55C98.7188 143.55 97.8599 143.303 97.1238 142.81C95.4878 141.741 94.6699 139.994 94.6699 137.57C94.6699 136.871 96.5921 119.999 100.437 86.9541C90.7028 107.545 83.0549 123.801 77.4927 135.72C76.3067 138.268 75.6319 139.686 75.4683 139.974C74.2413 142.317 72.6054 143.509 70.5605 143.55C70.1515 143.55 69.763 143.509 69.3949 143.426C67.6772 143.098 66.3685 141.68 65.4687 139.172L54.8557 86.8308C52.4836 105.655 50.0706 122.876 47.6167 138.494C47.6167 138.535 47.5963 138.618 47.5554 138.741C47.1055 141.947 45.4696 143.55 42.6476 143.55C41.6661 143.55 40.8072 143.303 40.0711 142.81C38.4351 141.741 37.6172 139.994 37.6172 137.57C37.6172 137.159 40.5209 114.985 46.3285 71.0481C47.8417 59.7043 48.6596 53.5803 48.7823 52.6761C48.905 51.9363 49.1504 51.2581 49.5185 50.6416C50.541 48.9976 52.0337 48.1756 53.9968 48.1756C54.4467 48.1756 54.917 48.2372 55.4078 48.3605C57.1664 48.8537 58.1684 49.7785 58.4138 51.1348C59.2318 55.7381 61.8697 69.1369 66.3276 91.3313C69.5176 107.402 71.5625 117.78 72.4623 122.465L105.651 51.7513C105.815 51.3403 106.04 50.9088 106.326 50.4567C107.512 48.9359 108.984 48.1756 110.743 48.1756C111.52 48.1756 112.256 48.3811 112.951 48.7921C114.587 49.6963 115.487 51.0937 115.651 52.9843C115.487 54.1763 115.323 55.5531 115.16 57.115C109.148 105.326 105.651 132.453 104.669 138.494Z" fill="white"/>
</g>
<defs>
<clipPath id="clip0_37_9964">
<rect width="180" height="180" rx="24" fill="white"/>
</clipPath>
</defs>
</svg>
