<svg width="686" height="70" viewBox="0 0 686 70" fill="none" xmlns="http://www.w3.org/2000/svg">
<path d="M166.611 38.0248L193.203 2.2168H196.659L176.307 29.9608L201.651 69.4168H198.195L174.291 32.5528L166.611 42.9208V69.4168H163.539V2.2168H166.611V38.0248Z" fill="#D3E6FE"/>
<path d="M137.653 2.2168C140.725 2.2168 143.381 2.6328 145.621 3.4648C147.925 4.2968 149.845 5.5768 151.381 7.3048C152.917 8.9688 154.037 11.0808 154.741 13.6408C155.509 16.2008 155.893 19.2088 155.893 22.6648C155.893 26.3768 155.477 29.6088 154.645 32.3608C153.813 35.0488 152.533 37.2568 150.805 38.9848C149.077 40.6488 146.869 41.8648 144.181 42.6328L155.989 69.4168H152.917L141.301 43.2088C140.853 43.2728 140.405 43.3368 139.957 43.4008C139.509 43.4648 139.061 43.5288 138.613 43.5928C138.165 43.5928 137.717 43.5928 137.269 43.5928H117.205V69.4168H114.133V2.2168H137.653ZM137.365 40.6168C139.925 40.6168 142.165 40.2968 144.085 39.6568C146.005 38.9528 147.605 37.8968 148.885 36.4888C150.229 35.0808 151.221 33.2248 151.861 30.9208C152.501 28.6168 152.821 25.8648 152.821 22.6648C152.821 19.6568 152.501 17.0648 151.861 14.8888C151.285 12.6488 150.357 10.8248 149.077 9.4168C147.861 8.0088 146.325 6.9528 144.469 6.2488C142.613 5.5448 140.437 5.1928 137.941 5.1928H117.205V40.6168H137.365Z" fill="#D3E6FE"/>
<path d="M3.67131 2.2168L26.4233 64.7128L49.2713 2.2168H52.2473V69.4168H49.2713V10.8568L27.8633 69.4168H24.7913L3.67131 10.8568V69.4168H0.695312V2.2168H3.67131Z" fill="#D3E6FE"/>
<path d="M663.496 1.06494C668.36 1.06494 672.424 1.96094 675.688 3.75294C679.016 5.54494 681.512 8.07294 683.176 11.3369C684.904 14.5369 685.768 18.3129 685.768 22.6649V49.0649C685.768 53.2889 685 56.8409 683.464 59.7209C681.992 62.5369 679.752 64.6809 676.744 66.1529C673.736 67.5609 669.96 68.2649 665.416 68.2649H645.352V1.06494H663.496ZM664.264 65.3849C667.208 65.3849 669.832 65.0969 672.136 64.5209C674.44 63.9449 676.36 63.0169 677.896 61.7369C679.496 60.3929 680.68 58.6329 681.448 56.4569C682.28 54.2809 682.696 51.6249 682.696 48.4889V22.6649C682.696 19.0169 682.024 15.7849 680.68 12.9689C679.336 10.1529 677.32 7.94494 674.632 6.34494C672.008 4.74494 668.616 3.94494 664.456 3.94494H648.424V65.3849H664.264Z" fill="#D3E6FE"/>
<path d="M603.727 68.2649V1.06494H606.799V65.3849H638.383V68.2649H603.727Z" fill="#D3E6FE"/>
<path d="M564.352 68.2649V1.06494H596.416V3.94494H567.424V28.7129H588.064L587.104 31.5929H567.424V65.4809H596.224V68.2649H564.352Z" fill="#D3E6FE"/>
<path d="M546.203 3.65694V1.06494H556.859V68.2649H553.883V3.94494L546.203 3.65694Z" fill="#D3E6FE"/>
<path d="M539.791 1.06494V4.04094H510.799V28.7129H531.535L530.383 31.5929H510.799V68.2649H507.727V1.06494H539.791Z" fill="#D3E6FE"/>
<path d="M483.472 3.94494V68.2649H480.592V3.94494H462.832V1.06494H501.52V3.94494H483.472Z" fill="#D3E6FE"/>
<path d="M466.724 68.2649H463.556L454.628 42.4409H430.244L421.412 68.2649H418.148L441.092 1.06494H443.684L466.724 68.2649ZM431.204 39.4649H453.764L442.436 6.34494L431.204 39.4649Z" fill="#D3E6FE"/>
<path d="M379.57 68.2649V1.06494H411.634V3.94494H382.642V28.7129H403.282L402.322 31.5929H382.642V65.4809H411.442V68.2649H379.57Z" fill="#D3E6FE"/>
<path d="M353.684 1.06494C356.756 1.06494 359.412 1.48094 361.652 2.31294C363.956 3.14494 365.876 4.42494 367.412 6.15294C368.948 7.81694 370.068 9.92894 370.772 12.4889C371.54 15.0489 371.924 18.0569 371.924 21.5129C371.924 25.2249 371.508 28.4569 370.676 31.2089C369.844 33.8969 368.564 36.1049 366.836 37.8329C365.108 39.4969 362.9 40.7129 360.212 41.4809L372.02 68.2649H368.948L357.332 42.0569C356.884 42.1209 356.436 42.1849 355.988 42.2489C355.54 42.3129 355.092 42.3769 354.644 42.4409C354.196 42.4409 353.748 42.4409 353.3 42.4409H333.236V68.2649H330.164V1.06494H353.684ZM353.396 39.4649C355.956 39.4649 358.196 39.1449 360.116 38.5049C362.036 37.8009 363.636 36.7449 364.916 35.3369C366.26 33.9289 367.252 32.0729 367.892 29.7689C368.532 27.4649 368.852 24.7129 368.852 21.5129C368.852 18.5049 368.532 15.9129 367.892 13.7369C367.316 11.4969 366.388 9.67294 365.108 8.26495C363.892 6.85695 362.356 5.80094 360.5 5.09694C358.644 4.39294 356.468 4.04094 353.972 4.04094H333.236V39.4649H353.396Z" fill="#D3E6FE"/>
<path d="M305.91 3.94494V68.2649H303.03V3.94494H285.27V1.06494H323.958V3.94494H305.91Z" fill="#D3E6FE"/>
<path d="M278.436 6.53698C277.092 5.70498 275.62 5.03298 274.02 4.52098C272.42 4.00898 270.788 3.62498 269.124 3.36898C267.46 3.11298 265.828 2.98498 264.228 2.98498C262.244 2.98498 260.196 3.20898 258.084 3.65698C255.972 4.10498 254.02 4.84098 252.228 5.86498C250.436 6.82498 248.996 8.13698 247.908 9.80098C246.82 11.465 246.276 13.449 246.276 15.753C246.276 18.057 246.82 20.041 247.908 21.705C248.996 23.305 250.468 24.713 252.324 25.929C254.18 27.081 256.26 28.137 258.564 29.097C260.868 29.993 263.236 30.889 265.668 31.785C268.164 32.681 270.564 33.705 272.868 34.857C275.236 35.945 277.348 37.257 279.204 38.793C281.06 40.265 282.532 42.057 283.62 44.169C284.708 46.281 285.252 48.841 285.252 51.849C285.252 54.921 284.58 57.577 283.236 59.817C281.956 62.057 280.228 63.881 278.052 65.289C275.876 66.697 273.444 67.721 270.756 68.361C268.132 69.065 265.444 69.417 262.692 69.417C259.748 69.417 256.836 69.033 253.956 68.265C251.14 67.561 248.516 66.441 246.084 64.905C243.652 63.369 241.508 61.385 239.652 58.953L241.668 57.225C243.268 59.337 245.188 61.065 247.428 62.409C249.732 63.753 252.164 64.777 254.724 65.481C257.348 66.121 259.94 66.441 262.5 66.441C264.868 66.441 267.204 66.185 269.508 65.673C271.876 65.161 273.988 64.329 275.844 63.177C277.764 61.961 279.268 60.393 280.356 58.473C281.508 56.553 282.084 54.217 282.084 51.465C282.084 48.905 281.54 46.729 280.452 44.937C279.364 43.081 277.892 41.513 276.036 40.233C274.18 38.889 272.1 37.705 269.796 36.681C267.492 35.657 265.092 34.697 262.596 33.801C260.164 32.905 257.796 31.945 255.492 30.921C253.188 29.833 251.108 28.649 249.252 27.369C247.396 26.025 245.924 24.425 244.836 22.569C243.748 20.713 243.204 18.505 243.204 15.945C243.204 13.065 243.812 10.633 245.028 8.64898C246.308 6.60098 247.972 4.96898 250.02 3.75298C252.132 2.47298 254.436 1.54498 256.932 0.968981C259.428 0.392981 261.892 0.10498 264.324 0.10498C266.116 0.10498 267.844 0.26498 269.508 0.58498C271.236 0.840981 272.932 1.22498 274.596 1.73698C276.26 2.24898 277.86 2.92098 279.396 3.75298L278.436 6.53698Z" fill="#D3E6FE"/>
<path fill-rule="evenodd" clip-rule="evenodd" d="M104.747 65.2651L84.0023 7.26514L63.2578 65.2651H63.386L83.6982 53.8348L104.615 65.2651H104.747Z" fill="#FF6B6B"/>
</svg>
